<mxfile host="app.diagrams.net" modified="2022-03-27T06:17:05.922Z" agent="5.0 (Windows NT 10.0; Win64; x64) AppleWebKit/537.36 (KHTML, like Gecko) Chrome/99.0.4844.82 Safari/537.36" etag="BZ1BjcCjylzjJnyiMJ3o" version="17.2.4" type="github" pages="2">
  <diagram id="4rfmR-maDiOqtv5PfEjz" name="Page-1">
    <mxGraphModel dx="2370" dy="1287" grid="1" gridSize="10" guides="1" tooltips="1" connect="1" arrows="1" fold="1" page="1" pageScale="1" pageWidth="850" pageHeight="1100" math="0" shadow="0">
      <root>
        <mxCell id="0" />
        <mxCell id="1" parent="0" />
        <object label="&lt;font color=&quot;#000000&quot;&gt;Create&lt;/font&gt;" component="transition" type="create" id="YrOgD01m61sKEJDhOxur-11">
          <mxCell style="edgeStyle=orthogonalEdgeStyle;rounded=0;orthogonalLoop=1;jettySize=auto;html=1;fontColor=#FFFFFF;" parent="1" source="YrOgD01m61sKEJDhOxur-1" target="YrOgD01m61sKEJDhOxur-2" edge="1">
            <mxGeometry relative="1" as="geometry">
              <Array as="points">
                <mxPoint x="420" y="140" />
                <mxPoint x="420" y="140" />
              </Array>
            </mxGeometry>
          </mxCell>
        </object>
        <mxCell id="YrOgD01m61sKEJDhOxur-1" value="" style="ellipse;whiteSpace=wrap;html=1;aspect=fixed;fillColor=#f5f5f5;fontColor=#333333;strokeColor=#666666;" parent="1" vertex="1">
          <mxGeometry x="380" y="20" width="80" height="80" as="geometry" />
        </mxCell>
        <mxCell id="YrOgD01m61sKEJDhOxur-4" value="Start" style="edgeStyle=orthogonalEdgeStyle;rounded=0;orthogonalLoop=1;jettySize=auto;html=1;" parent="1" source="YrOgD01m61sKEJDhOxur-2" target="YrOgD01m61sKEJDhOxur-3" edge="1">
          <mxGeometry relative="1" as="geometry" />
        </mxCell>
        <mxCell id="YrOgD01m61sKEJDhOxur-2" value="&lt;b&gt;TO DO&lt;/b&gt;" style="rounded=1;whiteSpace=wrap;html=1;fillColor=#f5f5f5;fontColor=#333333;strokeColor=#666666;" parent="1" vertex="1">
          <mxGeometry x="360" y="170" width="120" height="60" as="geometry" />
        </mxCell>
        <mxCell id="YrOgD01m61sKEJDhOxur-6" value="Ready for QA" style="edgeStyle=orthogonalEdgeStyle;rounded=0;orthogonalLoop=1;jettySize=auto;html=1;" parent="1" source="YrOgD01m61sKEJDhOxur-3" target="YrOgD01m61sKEJDhOxur-5" edge="1">
          <mxGeometry relative="1" as="geometry" />
        </mxCell>
        <mxCell id="YrOgD01m61sKEJDhOxur-3" value="IN PROGRESS" style="rounded=1;whiteSpace=wrap;html=1;fillColor=#0050ef;fontColor=#ffffff;strokeColor=#001DBC;" parent="1" vertex="1">
          <mxGeometry x="360" y="310" width="120" height="60" as="geometry" />
        </mxCell>
        <mxCell id="YrOgD01m61sKEJDhOxur-8" value="Complete" style="edgeStyle=orthogonalEdgeStyle;rounded=0;orthogonalLoop=1;jettySize=auto;html=1;" parent="1" source="YrOgD01m61sKEJDhOxur-5" target="YrOgD01m61sKEJDhOxur-7" edge="1">
          <mxGeometry relative="1" as="geometry" />
        </mxCell>
        <mxCell id="YrOgD01m61sKEJDhOxur-5" value="IN QA" style="rounded=1;whiteSpace=wrap;html=1;fillColor=#0050ef;fontColor=#ffffff;strokeColor=#001DBC;" parent="1" vertex="1">
          <mxGeometry x="360" y="450" width="120" height="60" as="geometry" />
        </mxCell>
        <mxCell id="YrOgD01m61sKEJDhOxur-10" value="reject" style="edgeStyle=orthogonalEdgeStyle;rounded=0;orthogonalLoop=1;jettySize=auto;html=1;exitX=1;exitY=0.5;exitDx=0;exitDy=0;entryX=1;entryY=0.5;entryDx=0;entryDy=0;" parent="1" source="YrOgD01m61sKEJDhOxur-5" target="YrOgD01m61sKEJDhOxur-3" edge="1">
          <mxGeometry relative="1" as="geometry">
            <mxPoint x="550" y="340" as="targetPoint" />
          </mxGeometry>
        </mxCell>
        <mxCell id="YrOgD01m61sKEJDhOxur-7" value="&lt;font color=&quot;#ffffff&quot;&gt;DONE&lt;/font&gt;" style="rounded=1;whiteSpace=wrap;html=1;fillColor=#00994D;strokeColor=#00994D;" parent="1" vertex="1">
          <mxGeometry x="360" y="590" width="120" height="60" as="geometry" />
        </mxCell>
        <UserObject label="https://www.youtube.com/watch?v=J4qRYgvHzM4" link="https://www.youtube.com/watch?v=J4qRYgvHzM4" id="4GDL2C0KiZRV_4dWTIUt-2">
          <mxCell style="text;whiteSpace=wrap;html=1;" vertex="1" parent="1">
            <mxGeometry x="70" y="60" width="290" height="30" as="geometry" />
          </mxCell>
        </UserObject>
      </root>
    </mxGraphModel>
  </diagram>
  <diagram id="oOZ5jgcxlYr5JpWlIjSU" name="User Story Workflow">
    <mxGraphModel dx="3280" dy="858" grid="1" gridSize="10" guides="1" tooltips="1" connect="1" arrows="1" fold="1" page="1" pageScale="1" pageWidth="850" pageHeight="1100" math="0" shadow="0">
      <root>
        <mxCell id="0" />
        <mxCell id="1" parent="0" />
        <mxCell id="fFH4fcUgRMyiKCvhTr1o-24" value="Created" style="edgeStyle=orthogonalEdgeStyle;rounded=0;orthogonalLoop=1;jettySize=auto;html=1;" edge="1" parent="1" source="fFH4fcUgRMyiKCvhTr1o-2" target="fFH4fcUgRMyiKCvhTr1o-4">
          <mxGeometry relative="1" as="geometry" />
        </mxCell>
        <mxCell id="fFH4fcUgRMyiKCvhTr1o-2" value="" style="ellipse;whiteSpace=wrap;html=1;aspect=fixed;fillColor=#f5f5f5;fontColor=#333333;strokeColor=#666666;" vertex="1" parent="1">
          <mxGeometry x="-1010" y="120" width="80" height="80" as="geometry" />
        </mxCell>
        <mxCell id="fFH4fcUgRMyiKCvhTr1o-3" value="Start work" style="edgeStyle=orthogonalEdgeStyle;rounded=0;orthogonalLoop=1;jettySize=auto;html=1;" edge="1" parent="1" source="fFH4fcUgRMyiKCvhTr1o-4" target="fFH4fcUgRMyiKCvhTr1o-6">
          <mxGeometry relative="1" as="geometry" />
        </mxCell>
        <mxCell id="fFH4fcUgRMyiKCvhTr1o-23" style="edgeStyle=orthogonalEdgeStyle;rounded=0;orthogonalLoop=1;jettySize=auto;html=1;exitX=0.5;exitY=1;exitDx=0;exitDy=0;entryX=0;entryY=0.75;entryDx=0;entryDy=0;" edge="1" parent="1" source="fFH4fcUgRMyiKCvhTr1o-4" target="fFH4fcUgRMyiKCvhTr1o-14">
          <mxGeometry relative="1" as="geometry" />
        </mxCell>
        <mxCell id="fFH4fcUgRMyiKCvhTr1o-4" value="&lt;b&gt;OPEN&lt;/b&gt;" style="rounded=1;whiteSpace=wrap;html=1;fillColor=#0050ef;fontColor=#ffffff;strokeColor=#001DBC;" vertex="1" parent="1">
          <mxGeometry x="-800" y="150" width="120" height="60" as="geometry" />
        </mxCell>
        <mxCell id="fFH4fcUgRMyiKCvhTr1o-5" value="Send to Review" style="edgeStyle=orthogonalEdgeStyle;rounded=0;orthogonalLoop=1;jettySize=auto;html=1;" edge="1" parent="1" source="fFH4fcUgRMyiKCvhTr1o-6" target="fFH4fcUgRMyiKCvhTr1o-8">
          <mxGeometry relative="1" as="geometry" />
        </mxCell>
        <mxCell id="fFH4fcUgRMyiKCvhTr1o-20" style="edgeStyle=orthogonalEdgeStyle;rounded=0;orthogonalLoop=1;jettySize=auto;html=1;exitX=0.5;exitY=1;exitDx=0;exitDy=0;entryX=0;entryY=0.5;entryDx=0;entryDy=0;" edge="1" parent="1" source="fFH4fcUgRMyiKCvhTr1o-6" target="fFH4fcUgRMyiKCvhTr1o-14">
          <mxGeometry relative="1" as="geometry" />
        </mxCell>
        <mxCell id="fFH4fcUgRMyiKCvhTr1o-6" value="IN PROGRESS" style="rounded=1;whiteSpace=wrap;html=1;fillColor=#f9f7ed;strokeColor=#FF9933;" vertex="1" parent="1">
          <mxGeometry x="-565" y="150" width="120" height="60" as="geometry" />
        </mxCell>
        <mxCell id="fFH4fcUgRMyiKCvhTr1o-13" value="" style="edgeStyle=orthogonalEdgeStyle;rounded=0;orthogonalLoop=1;jettySize=auto;html=1;" edge="1" parent="1" source="fFH4fcUgRMyiKCvhTr1o-8" target="fFH4fcUgRMyiKCvhTr1o-11">
          <mxGeometry relative="1" as="geometry" />
        </mxCell>
        <mxCell id="fFH4fcUgRMyiKCvhTr1o-19" style="edgeStyle=orthogonalEdgeStyle;rounded=0;orthogonalLoop=1;jettySize=auto;html=1;exitX=0.5;exitY=0;exitDx=0;exitDy=0;entryX=0.25;entryY=0;entryDx=0;entryDy=0;" edge="1" parent="1" source="fFH4fcUgRMyiKCvhTr1o-8" target="fFH4fcUgRMyiKCvhTr1o-6">
          <mxGeometry relative="1" as="geometry" />
        </mxCell>
        <mxCell id="fFH4fcUgRMyiKCvhTr1o-22" style="edgeStyle=orthogonalEdgeStyle;rounded=0;orthogonalLoop=1;jettySize=auto;html=1;exitX=0.5;exitY=1;exitDx=0;exitDy=0;entryX=0;entryY=0.5;entryDx=0;entryDy=0;" edge="1" parent="1" source="fFH4fcUgRMyiKCvhTr1o-8" target="fFH4fcUgRMyiKCvhTr1o-14">
          <mxGeometry relative="1" as="geometry" />
        </mxCell>
        <mxCell id="fFH4fcUgRMyiKCvhTr1o-8" value="IN REVIEW" style="rounded=1;whiteSpace=wrap;html=1;fillColor=#f9f7ed;fontColor=default;strokeColor=#FF9933;" vertex="1" parent="1">
          <mxGeometry x="-180" y="150" width="120" height="60" as="geometry" />
        </mxCell>
        <mxCell id="fFH4fcUgRMyiKCvhTr1o-12" value="" style="edgeStyle=orthogonalEdgeStyle;rounded=0;orthogonalLoop=1;jettySize=auto;html=1;" edge="1" parent="1" source="fFH4fcUgRMyiKCvhTr1o-11" target="fFH4fcUgRMyiKCvhTr1o-10">
          <mxGeometry relative="1" as="geometry" />
        </mxCell>
        <mxCell id="fFH4fcUgRMyiKCvhTr1o-17" style="edgeStyle=orthogonalEdgeStyle;rounded=0;orthogonalLoop=1;jettySize=auto;html=1;exitX=0.5;exitY=0;exitDx=0;exitDy=0;entryX=0.5;entryY=0;entryDx=0;entryDy=0;" edge="1" parent="1" source="fFH4fcUgRMyiKCvhTr1o-10" target="fFH4fcUgRMyiKCvhTr1o-11">
          <mxGeometry relative="1" as="geometry" />
        </mxCell>
        <mxCell id="fFH4fcUgRMyiKCvhTr1o-10" value="&lt;font color=&quot;#ffffff&quot;&gt;DONE&lt;/font&gt;" style="rounded=1;whiteSpace=wrap;html=1;fillColor=#00994D;strokeColor=#00994D;" vertex="1" parent="1">
          <mxGeometry x="530" y="150" width="120" height="60" as="geometry" />
        </mxCell>
        <mxCell id="fFH4fcUgRMyiKCvhTr1o-16" style="edgeStyle=orthogonalEdgeStyle;rounded=0;orthogonalLoop=1;jettySize=auto;html=1;exitX=0.5;exitY=1;exitDx=0;exitDy=0;entryX=0;entryY=0.5;entryDx=0;entryDy=0;" edge="1" parent="1" source="fFH4fcUgRMyiKCvhTr1o-11" target="fFH4fcUgRMyiKCvhTr1o-14">
          <mxGeometry relative="1" as="geometry" />
        </mxCell>
        <mxCell id="fFH4fcUgRMyiKCvhTr1o-18" style="edgeStyle=orthogonalEdgeStyle;rounded=0;orthogonalLoop=1;jettySize=auto;html=1;exitX=0.25;exitY=0;exitDx=0;exitDy=0;entryX=0.75;entryY=0;entryDx=0;entryDy=0;" edge="1" parent="1" source="fFH4fcUgRMyiKCvhTr1o-11" target="fFH4fcUgRMyiKCvhTr1o-6">
          <mxGeometry relative="1" as="geometry" />
        </mxCell>
        <mxCell id="fFH4fcUgRMyiKCvhTr1o-11" value="IN ACCEPTANCE" style="whiteSpace=wrap;html=1;fillColor=#f9f7ed;strokeColor=#FF9933;rounded=1;fontColor=default;" vertex="1" parent="1">
          <mxGeometry x="140" y="150" width="120" height="60" as="geometry" />
        </mxCell>
        <mxCell id="fFH4fcUgRMyiKCvhTr1o-14" value="&lt;font color=&quot;#ffffff&quot;&gt;CANCELED&lt;/font&gt;" style="rounded=1;whiteSpace=wrap;html=1;fillColor=#00994D;strokeColor=#00994D;" vertex="1" parent="1">
          <mxGeometry x="410" y="320" width="120" height="60" as="geometry" />
        </mxCell>
        <mxCell id="IMvWghc17UXXBQlJM81Z-3" value="" style="group" vertex="1" connectable="0" parent="1">
          <mxGeometry x="-760" y="10" width="80" height="110" as="geometry" />
        </mxCell>
        <mxCell id="IMvWghc17UXXBQlJM81Z-1" value="Story&lt;span style=&quot;white-space: pre&quot;&gt;	&lt;/span&gt;&amp;nbsp; &amp;nbsp;5&lt;br&gt;Story&amp;nbsp; &amp;nbsp; &amp;nbsp; &amp;nbsp; &amp;nbsp; 2&lt;br&gt;&lt;br&gt;Story&amp;nbsp; &amp;nbsp; &amp;nbsp; &amp;nbsp; &amp;nbsp; 3&lt;br&gt;&lt;br&gt;" style="shape=internalStorage;whiteSpace=wrap;html=1;backgroundOutline=1;strokeColor=#FF9933;flipH=1;align=left;" vertex="1" parent="IMvWghc17UXXBQlJM81Z-3">
          <mxGeometry y="30" width="80" height="80" as="geometry" />
        </mxCell>
        <mxCell id="IMvWghc17UXXBQlJM81Z-2" value="backlog" style="text;html=1;strokeColor=none;fillColor=none;align=center;verticalAlign=middle;whiteSpace=wrap;rounded=0;" vertex="1" parent="IMvWghc17UXXBQlJM81Z-3">
          <mxGeometry x="10" width="60" height="30" as="geometry" />
        </mxCell>
        <mxCell id="IMvWghc17UXXBQlJM81Z-4" value="&lt;h3&gt;Workflow Trigger&lt;/h3&gt;&lt;p&gt;Assigning an &lt;br&gt;item to an iteration&lt;/p&gt;" style="text;html=1;strokeColor=none;fillColor=none;spacing=5;spacingTop=-20;whiteSpace=wrap;overflow=hidden;rounded=0;" vertex="1" parent="1">
          <mxGeometry x="-1030" y="220" width="130" height="120" as="geometry" />
        </mxCell>
        <mxCell id="IMvWghc17UXXBQlJM81Z-8" value="Stories contain&amp;nbsp;Stories contain &lt;code&gt;items&lt;/code&gt;" style="text;html=1;strokeColor=none;fillColor=none;align=center;verticalAlign=middle;whiteSpace=wrap;rounded=0;labelBorderColor=#D5E8D4;" vertex="1" parent="1">
          <mxGeometry x="-1000" y="40" width="140" height="40" as="geometry" />
        </mxCell>
        <mxCell id="IMvWghc17UXXBQlJM81Z-6" value="" style="endArrow=none;dashed=1;html=1;dashPattern=1 3;strokeWidth=2;rounded=0;entryX=1.001;entryY=0.128;entryDx=0;entryDy=0;entryPerimeter=0;" edge="1" parent="1" source="IMvWghc17UXXBQlJM81Z-8" target="IMvWghc17UXXBQlJM81Z-1">
          <mxGeometry width="50" height="50" relative="1" as="geometry">
            <mxPoint x="-829" y="50" as="sourcePoint" />
            <mxPoint x="-710" y="100" as="targetPoint" />
          </mxGeometry>
        </mxCell>
        <mxCell id="IMvWghc17UXXBQlJM81Z-9" value="&lt;h3&gt;Release Plan&lt;/h3&gt;&lt;p&gt;Stories are created and distributed before workflows and items are created. Therefore the creation of a story does not trigger the start of a workflow.&lt;/p&gt;" style="text;html=1;strokeColor=none;fillColor=none;spacing=5;spacingTop=-20;whiteSpace=wrap;overflow=hidden;rounded=0;labelBorderColor=#D5E8D4;" vertex="1" parent="1">
          <mxGeometry x="-1570" y="70" width="190" height="120" as="geometry" />
        </mxCell>
      </root>
    </mxGraphModel>
  </diagram>
</mxfile>
